# xmcd
#
# Track frame offsets:
#	187
#	14267
#	29670
#	47285
#	60952
#	72535
#	89082
#	103242
#
# Disc length: 1613 seconds
#
# Revision: 3
# Processed by: cddbd v1.5.2PL0 Copyright (c) Steve Scherf et al.
# Submitted via: audiograbber 1.83.01
#
DISCID=69064b08
DTITLE=Lorrie Morgan - Trainwreck of Emotion
DYEAR=1993
DGENRE=Country
TTITLE0=Trainwreck of Emotion
TTITLE1=In Tears
TTITLE2=I'll Take the Memories
TTITLE3=Gonna Leave the Light On
TTITLE4=One Step Ahead of You
TTITLE5=Autumn's Not That Cold
TTITLE6=Hand Over Your Heart
TTITLE7=Faithfully
EXTD=
EXTT0=
EXTT1=
EXTT2=
EXTT3=
EXTT4=
EXTT5=
EXTT6=
EXTT7=
PLAYORDER=
